# xmcd CD database file
#
# Track frame offsets:
#	150
#	15720
#	33660
#	50705
#	60097
#	76675
#	92842
#	115845
#	130435
#	148097
#	162027
#	178352
#	204030
#	221907
#	234360
#	250522
#	265597
#	283425
#	297822
#
# Disc length: 4167 seconds
#
# Revision: 1
# Processed by: cddbd v1.5.2PL0 Copyright (c) Steve Scherf et al.
# Submitted via: CDex 1.51
#
DISCID=11104513
DTITLE=Jimmy Rogers - That's All Right
DYEAR=1999
DGENRE=Blues
TTITLE0=Sloppy Drunk
TTITLE1=I Can't Sleep For Worrying
TTITLE2=Mistreated Baby
TTITLE3=Slick Chick
TTITLE4=Pretty Baby
TTITLE5=Left Me With A Broken Heart
TTITLE6=I Lost The Good Woman
TTITLE7=You're So Sweet
TTITLE8=The Last Time
TTITLE9=Shelby County
TTITLE10=Tricky Woman
TTITLE11=Sloppy Drunk Ii
TTITLE12=Gold Tailed Bird
TTITLE13=Walkin' By Myself
TTITLE14=That's All Right
TTITLE15=Ludella
TTITLE16=I Can't Sleep For Worrying
TTITLE17=Pretty Baby
TTITLE18=Sloppy Drunk III
EXTD=YEAR: 1999
EXTT0=
EXTT1=
EXTT2=
EXTT3=
EXTT4=
EXTT5=
EXTT6=
EXTT7=
EXTT8=
EXTT9=
EXTT10=
EXTT11=
EXTT12=
EXTT13=
EXTT14=
EXTT15=
EXTT16=
EXTT17=
EXTT18=
PLAYORDER=
